<svg width="1011" height="141" viewBox="0 0 1011 141" fill="none" xmlns="http://www.w3.org/2000/svg">
<path d="M32.0698 32.7681H16.3898L11.5898 47.3601H4.10175L19.9738 3.2001H29.0618L44.4858 47.3601H36.8698L32.0698 32.7681ZM18.2458 27.2001H30.2138L24.3898 9.02411L18.2458 27.2001ZM50.9658 1.53611C53.3338 1.53611 55.1258 3.26411 55.1258 5.5681C55.1258 7.9361 53.3338 9.6641 50.9658 9.6641C48.5978 9.6641 46.8698 7.9361 46.8698 5.5681C46.8698 3.26411 48.5978 1.53611 50.9658 1.53611ZM54.4858 47.3601H47.4458V13.3761H54.4858V47.3601ZM77.0763 12.5441C78.0363 12.5441 78.7403 12.6721 79.4443 12.9281V18.4321C72.9803 17.9841 68.9483 21.3121 68.9483 29.6961V47.3601H61.9083V13.3761H68.9483V19.1361L71.8283 14.4641C73.3643 13.2481 75.3483 12.5441 77.0763 12.5441ZM101.367 12.4801C111.095 12.4801 116.663 19.8401 116.663 29.7601C116.663 42.2401 108.983 48.2561 100.215 48.2561C97.3988 48.2561 93.8788 47.4881 92.1508 46.1441L89.9108 42.7521V47.3601H82.8708V0.320107H89.9108V18.6881L92.4708 15.0401C94.3908 13.4401 97.9108 12.4801 101.367 12.4801ZM99.3828 43.1361C105.015 43.1361 109.239 38.8481 109.239 30.4001C109.239 23.0401 105.847 17.6001 99.7028 17.6001C94.4548 17.6001 89.9108 20.9281 89.9108 30.0161V31.7441C89.9108 40.0641 94.9028 43.1361 99.3828 43.1361ZM151.349 22.2081C151.477 23.9361 151.541 25.4721 151.541 28.2241V47.3601H144.501V28.9921C144.501 27.3921 144.501 25.9201 144.373 24.1921C144.053 20.3521 142.005 17.6641 137.205 17.6641C132.341 17.6641 128.373 21.5041 128.373 32.1281V47.3601H121.333V13.3761H128.373V19.0081L130.677 15.1041C133.365 13.0561 135.861 12.4801 139.253 12.4801C146.549 12.4801 150.709 16.2561 151.349 22.2081ZM177.042 12.4801C186.77 12.4801 192.338 19.8401 192.338 29.7601C192.338 42.2401 184.658 48.2561 175.89 48.2561C173.074 48.2561 169.554 47.4881 167.826 46.1441L165.586 42.7521V47.3601H158.546V0.320107H165.586V18.6881L168.146 15.0401C170.066 13.4401 173.586 12.4801 177.042 12.4801ZM175.058 43.1361C180.69 43.1361 184.914 38.8481 184.914 30.4001C184.914 23.0401 181.522 17.6001 175.378 17.6001C170.13 17.6001 165.586 20.9281 165.586 30.0161V31.7441C165.586 40.0641 170.578 43.1361 175.058 43.1361ZM256.212 20.8001C256.468 22.5281 256.532 24.0641 256.532 26.8161V47.3601H249.492V29.3761C249.492 26.8161 249.428 24.9601 249.236 23.2321C248.788 19.5841 246.548 17.6641 242.9 17.6641C238.804 17.6641 236.052 21.0561 236.052 30.2721V47.3601H229.076V29.3761C229.076 26.8161 229.012 24.9601 228.82 23.2321C228.308 19.5841 226.132 17.6641 222.484 17.6641C218.324 17.6641 215.636 21.0561 215.636 30.2721V47.3601H208.596V13.3761H215.636V18.4321L217.94 14.4641C219.732 13.0561 222.1 12.4801 225.172 12.4801C230.548 12.4801 233.94 15.1681 235.22 18.9441L238.356 14.4641C240.212 13.0561 242.58 12.4801 245.588 12.4801C251.86 12.4801 255.444 16.1281 256.212 20.8001ZM283.08 47.3601L282.44 42.4321L280.712 46.0801C278.408 47.6801 275.464 48.2561 272.264 48.2561C266.248 48.2561 261.32 44.8001 261.32 38.4641C261.32 30.9121 267.336 26.8161 280.2 26.8161H282.376V25.9841C282.376 24.7041 282.376 23.5521 282.248 22.2721C282.056 19.5201 280.328 17.6001 276.296 17.6001C272.2 17.6001 270.088 19.9041 269.704 24.1281H262.664C263.112 16.7041 268.68 12.4801 276.424 12.4801C285.192 12.4801 288.648 16.1921 289.224 21.9521C289.352 23.3601 289.416 25.1521 289.416 26.7521V38.7201C289.416 41.2801 289.544 43.5841 290.056 47.3601H283.08ZM274.824 43.1361C279.24 43.1361 282.376 40.1281 282.376 34.6241V31.4881C274.12 30.8481 268.744 32.7041 268.744 37.8881C268.744 41.4721 271.112 43.1361 274.824 43.1361ZM326.787 22.2081C326.915 23.9361 326.979 25.4721 326.979 28.2241V47.3601H319.939V28.9921C319.939 27.3921 319.939 25.9201 319.811 24.1921C319.491 20.3521 317.443 17.6641 312.643 17.6641C307.779 17.6641 303.811 21.5041 303.811 32.1281V47.3601H296.771V13.3761H303.811V19.0081L306.115 15.1041C308.803 13.0561 311.299 12.4801 314.691 12.4801C321.987 12.4801 326.147 16.2561 326.787 22.2081ZM353.567 47.3601L352.927 42.4321L351.199 46.0801C348.895 47.6801 345.951 48.2561 342.751 48.2561C336.735 48.2561 331.807 44.8001 331.807 38.4641C331.807 30.9121 337.823 26.8161 350.687 26.8161H352.863V25.9841C352.863 24.7041 352.863 23.5521 352.735 22.2721C352.543 19.5201 350.815 17.6001 346.783 17.6001C342.687 17.6001 340.575 19.9041 340.191 24.1281H333.151C333.599 16.7041 339.167 12.4801 346.911 12.4801C355.679 12.4801 359.135 16.1921 359.711 21.9521C359.839 23.3601 359.903 25.1521 359.903 26.7521V38.7201C359.903 41.2801 360.031 43.5841 360.543 47.3601H353.567ZM345.311 43.1361C349.727 43.1361 352.863 40.1281 352.863 34.6241V31.4881C344.607 30.8481 339.231 32.7041 339.231 37.8881C339.231 41.4721 341.599 43.1361 345.311 43.1361ZM398.49 13.3761V38.9121C398.49 41.0241 398.49 43.6481 398.426 45.5041C398.042 55.8081 391.642 60.9921 381.402 60.9921C371.61 60.9921 366.426 56.8961 365.722 49.6001L365.658 48.9601H372.57L372.634 49.5361C373.082 53.1841 376.218 55.6801 381.466 55.6801C387.61 55.6801 391.13 52.3521 391.386 46.2721C391.45 44.8001 391.45 43.5841 391.45 42.3681V41.6641L388.89 45.3761C386.97 46.9121 383.642 47.9361 380.186 47.9361C370.394 47.9361 364.698 40.7681 364.698 30.7841C364.698 18.3681 372.378 12.4801 381.146 12.4801C383.962 12.4801 387.482 13.2481 389.21 14.5921L391.45 17.9841V13.3761H398.49ZM381.594 42.8161C386.906 42.8161 391.45 39.4881 391.45 30.4001V28.9281C391.45 20.6721 386.458 17.6001 381.914 17.6001C376.346 17.6001 372.122 21.6961 372.122 30.1441C372.122 37.5041 375.514 42.8161 381.594 42.8161ZM435.156 29.5041C435.156 30.1441 435.156 31.1041 435.028 32.3201H410.644C411.22 40.4481 414.932 43.1361 419.54 43.1361C423.636 43.1361 426.836 40.6401 427.54 36.3521H434.644C433.172 44.4161 426.708 48.2561 419.284 48.2561C410.196 48.2561 403.348 42.4961 403.348 30.4641C403.348 19.7121 410.196 12.4801 419.988 12.4801C429.844 12.4801 435.156 19.9041 435.156 29.5041ZM419.732 17.6001C414.932 17.6001 411.476 20.8641 410.708 27.3921H427.924C427.412 21.1201 424.66 17.6001 419.732 17.6001ZM487.862 20.8001C488.118 22.5281 488.182 24.0641 488.182 26.8161V47.3601H481.142V29.3761C481.142 26.8161 481.078 24.9601 480.886 23.2321C480.438 19.5841 478.198 17.6641 474.55 17.6641C470.454 17.6641 467.702 21.0561 467.702 30.2721V47.3601H460.726V29.3761C460.726 26.8161 460.662 24.9601 460.47 23.2321C459.958 19.5841 457.782 17.6641 454.134 17.6641C449.974 17.6641 447.286 21.0561 447.286 30.2721V47.3601H440.246V13.3761H447.286V18.4321L449.59 14.4641C451.382 13.0561 453.75 12.4801 456.822 12.4801C462.198 12.4801 465.59 15.1681 466.87 18.9441L470.006 14.4641C471.862 13.0561 474.23 12.4801 477.238 12.4801C483.51 12.4801 487.094 16.1281 487.862 20.8001ZM524.394 29.5041C524.394 30.1441 524.394 31.1041 524.266 32.3201H499.882C500.458 40.4481 504.17 43.1361 508.778 43.1361C512.874 43.1361 516.074 40.6401 516.778 36.3521H523.882C522.41 44.4161 515.946 48.2561 508.522 48.2561C499.434 48.2561 492.586 42.4961 492.586 30.4641C492.586 19.7121 499.434 12.4801 509.226 12.4801C519.082 12.4801 524.394 19.9041 524.394 29.5041ZM508.97 17.6001C504.17 17.6001 500.714 20.8641 499.946 27.3921H517.162C516.65 21.1201 513.898 17.6001 508.97 17.6001ZM559.499 22.2081C559.627 23.9361 559.691 25.4721 559.691 28.2241V47.3601H552.651V28.9921C552.651 27.3921 552.651 25.9201 552.523 24.1921C552.203 20.3521 550.155 17.6641 545.355 17.6641C540.491 17.6641 536.523 21.5041 536.523 32.1281V47.3601H529.483V13.3761H536.523V19.0081L538.827 15.1041C541.515 13.0561 544.011 12.4801 547.403 12.4801C554.699 12.4801 558.859 16.2561 559.499 22.2081ZM575.08 18.5601V36.3521C575.08 37.5041 575.08 38.2721 575.144 39.1681C575.4 42.4961 576.68 43.2001 581.288 42.7521V47.6161C579.496 47.8721 577.832 48.0001 576.104 48.0001C570.792 48.0001 568.488 46.0161 568.168 41.5361C568.104 40.3841 568.104 38.9121 568.104 36.9921V18.5601H563.304V13.6321H568.104V5.5041H575.08V13.6321H581.736V18.5601H575.08ZM606.505 18.5601V36.3521C606.505 37.5041 606.505 38.2721 606.569 39.1681C606.825 42.4961 608.105 43.2001 612.713 42.7521V47.6161C610.921 47.8721 609.257 48.0001 607.529 48.0001C602.217 48.0001 599.913 46.0161 599.593 41.5361C599.529 40.3841 599.529 38.9121 599.529 36.9921V18.5601H594.729V13.6321H599.529V5.5041H606.505V13.6321H613.161V18.5601H606.505ZM647.974 22.2081C648.102 23.9361 648.166 25.4721 648.166 28.2241V47.3601H641.126V28.9921C641.126 27.3921 641.126 25.9201 640.998 24.1921C640.678 20.3521 638.63 17.6001 633.83 17.6641C628.966 17.7921 624.998 21.5041 624.998 32.1281V47.3601H617.958V0.000106812H624.998V19.0081L627.302 15.1041C629.99 13.0561 632.486 12.4801 635.878 12.4801C643.174 12.4801 647.334 16.2561 647.974 22.2081ZM674.755 47.3601L674.115 42.4321L672.387 46.0801C670.083 47.6801 667.139 48.2561 663.939 48.2561C657.923 48.2561 652.995 44.8001 652.995 38.4641C652.995 30.9121 659.011 26.8161 671.875 26.8161H674.051V25.9841C674.051 24.7041 674.051 23.5521 673.923 22.2721C673.731 19.5201 672.003 17.6001 667.971 17.6001C663.875 17.6001 661.763 19.9041 661.379 24.1281H654.339C654.787 16.7041 660.355 12.4801 668.099 12.4801C676.867 12.4801 680.323 16.1921 680.899 21.9521C681.027 23.3601 681.091 25.1521 681.091 26.7521V38.7201C681.091 41.2801 681.219 43.5841 681.731 47.3601H674.755ZM666.499 43.1361C670.915 43.1361 674.051 40.1281 674.051 34.6241V31.4881C665.795 30.8481 660.419 32.7041 660.419 37.8881C660.419 41.4721 662.787 43.1361 666.499 43.1361ZM696.83 18.5601V36.3521C696.83 37.5041 696.83 38.2721 696.894 39.1681C697.15 42.4961 698.43 43.2001 703.038 42.7521V47.6161C701.246 47.8721 699.582 48.0001 697.854 48.0001C692.542 48.0001 690.238 46.0161 689.918 41.5361C689.854 40.3841 689.854 38.9121 689.854 36.9921V18.5601H685.054V13.6321H689.854V5.5041H696.83V13.6321H703.486V18.5601H696.83ZM767.487 20.8001C767.743 22.5281 767.807 24.0641 767.807 26.8161V47.3601H760.767V29.3761C760.767 26.8161 760.703 24.9601 760.511 23.2321C760.063 19.5841 757.823 17.6641 754.175 17.6641C750.079 17.6641 747.327 21.0561 747.327 30.2721V47.3601H740.351V29.3761C740.351 26.8161 740.287 24.9601 740.095 23.2321C739.583 19.5841 737.407 17.6641 733.759 17.6641C729.599 17.6641 726.911 21.0561 726.911 30.2721V47.3601H719.871V13.3761H726.911V18.4321L729.215 14.4641C731.007 13.0561 733.375 12.4801 736.447 12.4801C741.823 12.4801 745.215 15.1681 746.495 18.9441L749.631 14.4641C751.487 13.0561 753.855 12.4801 756.863 12.4801C763.135 12.4801 766.719 16.1281 767.487 20.8001ZM794.355 47.3601L793.715 42.4321L791.987 46.0801C789.683 47.6801 786.739 48.2561 783.539 48.2561C777.523 48.2561 772.595 44.8001 772.595 38.4641C772.595 30.9121 778.611 26.8161 791.475 26.8161H793.651V25.9841C793.651 24.7041 793.651 23.5521 793.523 22.2721C793.331 19.5201 791.603 17.6001 787.571 17.6001C783.475 17.6001 781.363 19.9041 780.979 24.1281H773.939C774.387 16.7041 779.955 12.4801 787.699 12.4801C796.467 12.4801 799.923 16.1921 800.499 21.9521C800.627 23.3601 800.691 25.1521 800.691 26.7521V38.7201C800.691 41.2801 800.819 43.5841 801.331 47.3601H794.355ZM786.099 43.1361C790.515 43.1361 793.651 40.1281 793.651 34.6241V31.4881C785.395 30.8481 780.019 32.7041 780.019 37.8881C780.019 41.4721 782.387 43.1361 786.099 43.1361ZM823.662 30.0801L835.63 47.3601H827.502L819.438 34.5601L811.374 47.3601H803.31L815.406 30.1441L803.758 13.3761H812.014L819.758 25.6641L827.438 13.3761H835.502L823.662 30.0801ZM842.528 1.53611C844.896 1.53611 846.688 3.26411 846.688 5.5681C846.688 7.9361 844.896 9.6641 842.528 9.6641C840.16 9.6641 838.432 7.9361 838.432 5.5681C838.432 3.26411 840.16 1.53611 842.528 1.53611ZM846.048 47.3601H839.008V13.3761H846.048V47.3601ZM901.087 20.8001C901.343 22.5281 901.407 24.0641 901.407 26.8161V47.3601H894.367V29.3761C894.367 26.8161 894.303 24.9601 894.111 23.2321C893.663 19.5841 891.423 17.6641 887.775 17.6641C883.679 17.6641 880.927 21.0561 880.927 30.2721V47.3601H873.951V29.3761C873.951 26.8161 873.887 24.9601 873.695 23.2321C873.183 19.5841 871.007 17.6641 867.359 17.6641C863.199 17.6641 860.511 21.0561 860.511 30.2721V47.3601H853.471V13.3761H860.511V18.4321L862.815 14.4641C864.607 13.0561 866.975 12.4801 870.047 12.4801C875.423 12.4801 878.815 15.1681 880.095 18.9441L883.231 14.4641C885.087 13.0561 887.455 12.4801 890.463 12.4801C896.735 12.4801 900.319 16.1281 901.087 20.8001ZM911.891 1.53611C914.259 1.53611 916.051 3.26411 916.051 5.5681C916.051 7.9361 914.259 9.6641 911.891 9.6641C909.523 9.6641 907.795 7.9361 907.795 5.5681C907.795 3.26411 909.523 1.53611 911.891 1.53611ZM915.411 47.3601H908.371V13.3761H915.411V47.3601ZM947.153 42.3041V47.3601H919.953V42.4961L939.089 18.6881H921.233V13.6321H946.897V18.6881L927.889 42.3041H947.153ZM980.356 29.5041C980.356 30.1441 980.356 31.1041 980.228 32.3201H955.844C956.42 40.4481 960.132 43.1361 964.74 43.1361C968.836 43.1361 972.036 40.6401 972.74 36.3521H979.844C978.372 44.4161 971.908 48.2561 964.484 48.2561C955.396 48.2561 948.548 42.4961 948.548 30.4641C948.548 19.7121 955.396 12.4801 965.188 12.4801C975.044 12.4801 980.356 19.9041 980.356 29.5041ZM964.932 17.6001C960.132 17.6001 956.676 20.8641 955.908 27.3921H973.124C972.612 21.1201 969.86 17.6001 964.932 17.6001ZM996.39 12.4801C1004.2 12.4801 1008.55 16.8961 1009.32 23.1041H1002.15C1001.45 19.5201 999.334 17.4081 995.878 17.4081C992.55 17.4081 990.95 19.2641 990.95 21.8241C990.95 24.8961 993.446 26.1761 998.502 27.5201C1005.93 29.4401 1009.83 32.3841 1009.83 38.4001C1009.83 44.9921 1004.01 48.2561 996.582 48.2561C989.03 48.2561 983.462 44.8641 982.502 37.1841H989.606C990.438 41.5361 993.318 43.2641 996.838 43.2641C1000.1 43.2641 1002.73 41.8561 1002.73 38.9121C1002.73 35.9681 1000.42 34.3681 994.662 32.8321C988.454 31.2321 983.846 28.6081 983.846 22.6561C983.846 16.3201 988.838 12.4801 996.39 12.4801ZM34.112 93.3761L20.288 129.536C17.152 137.6 13.504 140.8 7.36 140.8C5.952 140.8 5.056 140.8 4.032 140.608V135.424C4.864 135.488 5.568 135.488 6.272 135.488C9.472 135.488 11.648 134.144 13.184 130.176L13.696 128.96L-2.98768e-06 93.3761H7.872L17.216 122.112L26.496 93.3761H34.112ZM50.9705 92.4801C62.3625 92.4801 68.1865 100.416 68.1865 110.336C68.1865 120.256 62.3625 128.256 50.9705 128.256C39.5145 128.256 33.7545 120.256 33.7545 110.336C33.7545 100.416 39.5145 92.4801 50.9705 92.4801ZM50.9705 123.136C57.1145 123.136 60.6985 118.016 60.6985 110.336C60.6985 102.656 57.1145 97.6001 50.9705 97.6001C44.7625 97.6001 41.1785 102.656 41.1785 110.336C41.1785 118.016 44.7625 123.136 50.9705 123.136ZM102.409 93.3761V127.36H95.433V121.536L93.065 125.76C90.377 127.68 87.881 128.256 84.489 128.256C77.449 128.256 73.353 124.288 72.585 119.616C72.329 117.888 72.265 116.352 72.265 113.6V93.3761H79.241V112.192C79.241 113.28 79.305 115.136 79.497 116.864C80.009 120.576 82.441 123.008 86.793 123.008C91.721 123.008 95.433 119.232 95.433 109.376V93.3761H102.409ZM124.97 92.5441C125.93 92.5441 126.634 92.6721 127.338 92.9281V98.4321C120.874 97.9841 116.842 101.312 116.842 109.696V127.36H109.802V93.3761H116.842V99.1361L119.722 94.4641C121.258 93.2481 123.242 92.5441 124.97 92.5441ZM171.6 109.504C171.6 110.144 171.6 111.104 171.472 112.32H147.088C147.664 120.448 151.376 123.136 155.984 123.136C160.08 123.136 163.28 120.64 163.984 116.352H171.088C169.616 124.416 163.152 128.256 155.728 128.256C146.64 128.256 139.792 122.496 139.792 110.464C139.792 99.7121 146.64 92.4801 156.432 92.4801C166.288 92.4801 171.6 99.9041 171.6 109.504ZM156.176 97.6001C151.376 97.6001 147.92 100.864 147.152 107.392H164.368C163.856 101.12 161.104 97.6001 156.176 97.6001ZM196.273 127.36L195.633 122.432L193.905 126.08C191.601 127.68 188.657 128.256 185.457 128.256C179.441 128.256 174.513 124.8 174.513 118.464C174.513 110.912 180.529 106.816 193.393 106.816H195.569V105.984C195.569 104.704 195.569 103.552 195.441 102.272C195.249 99.5201 193.521 97.6001 189.489 97.6001C185.393 97.6001 183.281 99.9041 182.897 104.128H175.857C176.305 96.7041 181.873 92.4801 189.617 92.4801C198.385 92.4801 201.841 96.1921 202.417 101.952C202.545 103.36 202.609 105.152 202.609 106.752V118.72C202.609 121.28 202.737 123.584 203.249 127.36H196.273ZM188.017 123.136C192.433 123.136 195.569 120.128 195.569 114.624V111.488C187.313 110.848 181.937 112.704 181.937 117.888C181.937 121.472 184.305 123.136 188.017 123.136ZM225.133 92.5441C226.093 92.5441 226.797 92.6721 227.501 92.9281V98.4321C221.037 97.9841 217.005 101.312 217.005 109.696V127.36H209.965V93.3761H217.005V99.1361L219.885 94.4641C221.421 93.2481 223.405 92.5441 225.133 92.5441ZM260.943 102.208C261.071 103.936 261.135 105.472 261.135 108.224V127.36H254.095V108.992C254.095 107.392 254.095 105.92 253.967 104.192C253.647 100.352 251.599 97.6641 246.799 97.6641C241.935 97.6641 237.967 101.504 237.967 112.128V127.36H230.927V93.3761H237.967V99.0081L240.271 95.1041C242.959 93.0561 245.455 92.4801 248.847 92.4801C256.143 92.4801 260.303 96.2561 260.943 102.208ZM271.66 81.5361C274.028 81.5361 275.82 83.2641 275.82 85.5681C275.82 87.9361 274.028 89.6641 271.66 89.6641C269.292 89.6641 267.564 87.9361 267.564 85.5681C267.564 83.2641 269.292 81.5361 271.66 81.5361ZM275.18 127.36H268.14V93.3761H275.18V127.36ZM312.618 102.208C312.746 103.936 312.81 105.472 312.81 108.224V127.36H305.77V108.992C305.77 107.392 305.77 105.92 305.642 104.192C305.322 100.352 303.274 97.6641 298.474 97.6641C293.61 97.6641 289.642 101.504 289.642 112.128V127.36H282.602V93.3761H289.642V99.0081L291.946 95.1041C294.634 93.0561 297.13 92.4801 300.522 92.4801C307.818 92.4801 311.978 96.2561 312.618 102.208ZM351.046 93.3761V118.912C351.046 121.024 351.046 123.648 350.982 125.504C350.598 135.808 344.198 140.992 333.958 140.992C324.166 140.992 318.982 136.896 318.278 129.6L318.214 128.96H325.126L325.19 129.536C325.638 133.184 328.774 135.68 334.022 135.68C340.166 135.68 343.686 132.352 343.942 126.272C344.006 124.8 344.006 123.584 344.006 122.368V121.664L341.446 125.376C339.526 126.912 336.198 127.936 332.742 127.936C322.95 127.936 317.254 120.768 317.254 110.784C317.254 98.3681 324.934 92.4801 333.702 92.4801C336.518 92.4801 340.038 93.2481 341.766 94.5921L344.006 97.9841V93.3761H351.046ZM334.15 122.816C339.462 122.816 344.006 119.488 344.006 110.4V108.928C344.006 100.672 339.014 97.6001 334.47 97.6001C328.902 97.6001 324.678 101.696 324.678 110.144C324.678 117.504 328.07 122.816 334.15 122.816ZM369.408 92.4801C377.216 92.4801 381.568 96.8961 382.336 103.104H375.168C374.464 99.5201 372.352 97.4081 368.896 97.4081C365.568 97.4081 363.968 99.2641 363.968 101.824C363.968 104.896 366.464 106.176 371.52 107.52C378.944 109.44 382.848 112.384 382.848 118.4C382.848 124.992 377.024 128.256 369.6 128.256C362.048 128.256 356.48 124.864 355.52 117.184H362.624C363.456 121.536 366.336 123.264 369.856 123.264C373.12 123.264 375.744 121.856 375.744 118.912C375.744 115.968 373.44 114.368 367.68 112.832C361.472 111.232 356.864 108.608 356.864 102.656C356.864 96.3201 361.856 92.4801 369.408 92.4801ZM445.866 93.3761L435.05 127.36H426.986L420.266 99.9041L413.482 127.36H405.354L394.538 93.3761H402.474L409.45 121.088L416.042 93.4401H424.618L431.402 121.152L438.378 93.3761H445.866ZM452.372 81.5361C454.74 81.5361 456.532 83.2641 456.532 85.5681C456.532 87.9361 454.74 89.6641 452.372 89.6641C450.004 89.6641 448.276 87.9361 448.276 85.5681C448.276 83.2641 450.004 81.5361 452.372 81.5361ZM455.892 127.36H448.852V93.3761H455.892V127.36ZM471.698 98.5601V116.352C471.698 117.504 471.698 118.272 471.762 119.168C472.018 122.496 473.298 123.2 477.906 122.752V127.616C476.114 127.872 474.45 128 472.722 128C467.41 128 465.106 126.016 464.786 121.536C464.722 120.384 464.722 118.912 464.722 116.992V98.5601H459.922V93.6321H464.722V85.5041H471.698V93.6321H478.354V98.5601H471.698ZM513.168 102.208C513.296 103.936 513.36 105.472 513.36 108.224V127.36H506.32V108.992C506.32 107.392 506.32 105.92 506.192 104.192C505.872 100.352 503.824 97.6001 499.024 97.6641C494.16 97.7921 490.192 101.504 490.192 112.128V127.36H483.152V80.0001H490.192V99.0081L492.496 95.1041C495.184 93.0561 497.68 92.4801 501.072 92.4801C508.368 92.4801 512.528 96.2561 513.168 102.208ZM542.896 92.4801C550.704 92.4801 555.056 96.8961 555.824 103.104H548.656C547.952 99.5201 545.84 97.4081 542.384 97.4081C539.056 97.4081 537.456 99.2641 537.456 101.824C537.456 104.896 539.952 106.176 545.008 107.52C552.432 109.44 556.336 112.384 556.336 118.4C556.336 124.992 550.512 128.256 543.088 128.256C535.536 128.256 529.968 124.864 529.008 117.184H536.112C536.944 121.536 539.824 123.264 543.344 123.264C546.608 123.264 549.232 121.856 549.232 118.912C549.232 115.968 546.928 114.368 541.168 112.832C534.96 111.232 530.352 108.608 530.352 102.656C530.352 96.3201 535.344 92.4801 542.896 92.4801ZM569.173 98.5601V116.352C569.173 117.504 569.173 118.272 569.237 119.168C569.493 122.496 570.773 123.2 575.381 122.752V127.616C573.589 127.872 571.925 128 570.197 128C564.885 128 562.581 126.016 562.261 121.536C562.197 120.384 562.197 118.912 562.197 116.992V98.5601H557.397V93.6321H562.197V85.5041H569.173V93.6321H575.829V98.5601H569.173ZM610.387 93.3761L596.563 129.536C593.427 137.6 589.779 140.8 583.635 140.8C582.227 140.8 581.331 140.8 580.307 140.608V135.424C581.139 135.488 581.843 135.488 582.547 135.488C585.747 135.488 587.923 134.144 589.459 130.176L589.971 128.96L576.275 93.3761H584.147L593.491 122.112L602.771 93.3761H610.387ZM620.186 80.3201V116.992C620.186 118.144 620.186 119.168 620.25 120.192C620.378 122.112 621.274 122.752 624.282 122.496V127.424C622.874 127.616 621.274 127.744 619.674 127.744C615.962 127.744 613.466 126.4 613.21 122.048C613.146 120.768 613.146 119.232 613.146 117.184V80.3201H620.186ZM657.8 109.504C657.8 110.144 657.8 111.104 657.672 112.32H633.288C633.864 120.448 637.576 123.136 642.184 123.136C646.28 123.136 649.48 120.64 650.184 116.352H657.288C655.816 124.416 649.352 128.256 641.928 128.256C632.84 128.256 625.992 122.496 625.992 110.464C625.992 99.7121 632.84 92.4801 642.632 92.4801C652.488 92.4801 657.8 99.9041 657.8 109.504ZM642.376 97.6001C637.576 97.6001 634.12 100.864 633.352 107.392H650.568C650.056 101.12 647.304 97.6001 642.376 97.6001ZM694.061 127.36L693.421 122.432L691.693 126.08C689.389 127.68 686.445 128.256 683.245 128.256C677.229 128.256 672.301 124.8 672.301 118.464C672.301 110.912 678.317 106.816 691.181 106.816H693.357V105.984C693.357 104.704 693.357 103.552 693.229 102.272C693.037 99.5201 691.309 97.6001 687.277 97.6001C683.181 97.6001 681.069 99.9041 680.685 104.128H673.645C674.093 96.7041 679.661 92.4801 687.405 92.4801C696.173 92.4801 699.629 96.1921 700.205 101.952C700.333 103.36 700.397 105.152 700.397 106.752V118.72C700.397 121.28 700.525 123.584 701.037 127.36H694.061ZM685.805 123.136C690.221 123.136 693.357 120.128 693.357 114.624V111.488C685.101 110.848 679.725 112.704 679.725 117.888C679.725 121.472 682.093 123.136 685.805 123.136ZM737.768 102.208C737.896 103.936 737.96 105.472 737.96 108.224V127.36H730.92V108.992C730.92 107.392 730.92 105.92 730.792 104.192C730.472 100.352 728.424 97.6641 723.624 97.6641C718.76 97.6641 714.792 101.504 714.792 112.128V127.36H707.752V93.3761H714.792V99.0081L717.096 95.1041C719.784 93.0561 722.28 92.4801 725.672 92.4801C732.968 92.4801 737.128 96.2561 737.768 102.208ZM776.196 80.3201V127.36H769.156V121.984L766.596 125.696C764.676 127.232 761.156 128.256 757.7 128.256C747.972 128.256 742.404 120.896 742.404 110.912C742.404 98.4961 750.084 92.4801 758.852 92.4801C761.668 92.4801 765.188 93.2481 766.916 94.5921L769.156 97.9841V80.3201H776.196ZM759.3 123.136C764.612 123.136 769.156 119.808 769.156 110.72V108.928C769.156 100.672 764.164 97.6001 759.62 97.6001C754.052 97.6001 749.828 101.888 749.828 110.336C749.828 117.696 753.22 123.136 759.3 123.136ZM809.09 92.4801C817.666 92.4801 823.106 97.6641 823.938 105.152H816.834C815.81 99.9681 813.058 97.6001 808.898 97.6001C803.97 97.6001 800.066 101.504 800.066 110.016C800.066 119.232 803.906 123.136 808.642 123.136C812.674 123.136 815.554 120.704 816.578 116.096H823.746C822.146 124.224 816.258 128.256 808.258 128.256C799.362 128.256 792.642 122.624 792.642 110.528C792.642 98.9441 800.194 92.4801 809.09 92.4801ZM843.07 92.4801C854.462 92.4801 860.286 100.416 860.286 110.336C860.286 120.256 854.462 128.256 843.07 128.256C831.614 128.256 825.854 120.256 825.854 110.336C825.854 100.416 831.614 92.4801 843.07 92.4801ZM843.07 123.136C849.214 123.136 852.798 118.016 852.798 110.336C852.798 102.656 849.214 97.6001 843.07 97.6001C836.862 97.6001 833.278 102.656 833.278 110.336C833.278 118.016 836.862 123.136 843.07 123.136ZM912.493 100.8C912.749 102.528 912.813 104.064 912.813 106.816V127.36H905.773V109.376C905.773 106.816 905.709 104.96 905.517 103.232C905.069 99.5841 902.829 97.6641 899.181 97.6641C895.085 97.6641 892.333 101.056 892.333 110.272V127.36H885.357V109.376C885.357 106.816 885.293 104.96 885.101 103.232C884.589 99.5841 882.413 97.6641 878.765 97.6641C874.605 97.6641 871.917 101.056 871.917 110.272V127.36H864.877V93.3761H871.917V98.4321L874.221 94.4641C876.013 93.0561 878.381 92.4801 881.453 92.4801C886.829 92.4801 890.221 95.1681 891.501 98.9441L894.637 94.4641C896.493 93.0561 898.861 92.4801 901.869 92.4801C908.141 92.4801 911.725 96.1281 912.493 100.8ZM927.521 87.8081C927.393 88.7041 927.329 90.1121 927.329 91.0721V93.6321H934.305V98.5601H927.329V127.36H920.353V98.5601H916.705V93.6321H920.353V91.4561C920.353 90.2401 920.353 88.5761 920.481 87.4241C921.057 82.1761 924.577 79.1041 930.977 79.1041C932.385 79.1041 933.729 79.2321 934.881 79.4881V84.7361C930.721 83.9681 927.905 84.9921 927.521 87.8081ZM952.771 92.4801C964.163 92.4801 969.987 100.416 969.987 110.336C969.987 120.256 964.163 128.256 952.771 128.256C941.315 128.256 935.555 120.256 935.555 110.336C935.555 100.416 941.315 92.4801 952.771 92.4801ZM952.771 123.136C958.915 123.136 962.499 118.016 962.499 110.336C962.499 102.656 958.915 97.6001 952.771 97.6001C946.563 97.6001 942.979 102.656 942.979 110.336C942.979 118.016 946.563 123.136 952.771 123.136ZM989.745 92.5441C990.705 92.5441 991.409 92.6721 992.113 92.9281V98.4321C985.649 97.9841 981.617 101.312 981.617 109.696V127.36H974.577V93.3761H981.617V99.1361L984.497 94.4641C986.033 93.2481 988.017 92.5441 989.745 92.5441ZM1003.92 98.5601V116.352C1003.92 117.504 1003.92 118.272 1003.99 119.168C1004.24 122.496 1005.52 123.2 1010.13 122.752V127.616C1008.34 127.872 1006.68 128 1004.95 128C999.635 128 997.331 126.016 997.011 121.536C996.947 120.384 996.947 118.912 996.947 116.992V98.5601H992.147V93.6321H996.947V85.5041H1003.92V93.6321H1010.58V98.5601H1003.92Z" fill="white"/>
</svg>
