<svg width="719" height="246" viewBox="0 0 719 246" fill="none" xmlns="http://www.w3.org/2000/svg">
<path d="M236.728 222.022H237.137L247.083 191.546H255.29L239.105 236.06C238.355 238.105 237.401 239.835 236.242 241.25C235.083 242.682 233.703 243.756 232.101 244.472C230.498 245.188 228.64 245.546 226.526 245.546C225.384 245.546 224.345 245.452 223.407 245.265C222.47 245.094 221.771 244.907 221.311 244.702L223.151 238.438C224.549 238.812 225.793 238.975 226.884 238.924C227.975 238.873 228.938 238.463 229.773 237.696C230.626 236.929 231.376 235.676 232.023 233.938L232.97 231.33L218.601 191.546H226.782L236.728 222.022ZM348.007 191.034C349.575 191.034 351.237 191.222 352.993 191.597C354.766 191.955 356.419 192.619 357.953 193.591C359.504 194.562 360.774 195.952 361.763 197.759C362.751 199.549 363.246 201.876 363.246 204.739V230.818H355.78V225.449H355.473C354.978 226.438 354.238 227.41 353.249 228.364C352.26 229.319 350.99 230.111 349.438 230.741C347.887 231.372 346.03 231.687 343.865 231.688C341.377 231.688 339.127 231.227 337.115 230.307C335.104 229.369 333.51 228.014 332.334 226.241C331.175 224.469 330.595 222.295 330.595 219.722C330.595 217.506 331.022 215.682 331.874 214.25C332.726 212.818 333.876 211.685 335.325 210.85C336.774 210.014 338.394 209.384 340.184 208.958C341.973 208.532 343.797 208.208 345.655 207.986C348.007 207.714 349.916 207.492 351.382 207.321C352.848 207.134 353.913 206.836 354.578 206.427C355.243 206.018 355.575 205.352 355.575 204.432V204.253C355.575 202.02 354.945 200.29 353.684 199.062C352.439 197.835 350.581 197.222 348.109 197.222C345.536 197.222 343.507 197.793 342.024 198.935C340.559 200.06 339.544 201.313 338.981 202.693L331.797 201.057C332.649 198.67 333.894 196.744 335.53 195.278C337.184 193.796 339.084 192.721 341.231 192.057C343.379 191.375 345.638 191.034 348.007 191.034ZM174.877 191.034C179.121 191.034 182.462 191.955 184.899 193.796C187.337 195.62 188.948 198.066 189.732 201.134L182.804 202.361C182.514 201.475 182.053 200.631 181.423 199.83C180.809 199.029 179.974 198.373 178.917 197.861C177.86 197.35 176.539 197.094 174.954 197.094C172.789 197.094 170.982 197.58 169.533 198.552C168.085 199.506 167.36 200.742 167.36 202.259C167.36 203.571 167.846 204.628 168.817 205.429C169.789 206.23 171.358 206.886 173.522 207.397L179.761 208.83C183.374 209.665 186.067 210.952 187.84 212.69C189.613 214.429 190.499 216.688 190.499 219.466C190.499 221.818 189.818 223.915 188.454 225.756C187.108 227.58 185.224 229.012 182.804 230.052C180.4 231.092 177.613 231.611 174.442 231.611C170.045 231.611 166.457 230.674 163.679 228.799C160.9 226.907 159.195 224.221 158.564 220.744L165.954 219.619C166.414 221.545 167.36 223.003 168.792 223.991C170.224 224.963 172.09 225.449 174.392 225.449C176.897 225.449 178.9 224.929 180.399 223.89C181.899 222.833 182.649 221.545 182.649 220.028C182.649 218.801 182.19 217.77 181.27 216.935C180.366 216.099 178.977 215.469 177.102 215.043L170.454 213.585C166.789 212.75 164.079 211.421 162.323 209.597C160.585 207.773 159.715 205.463 159.715 202.668C159.715 200.35 160.363 198.322 161.658 196.583C162.954 194.844 164.743 193.489 167.027 192.518C169.311 191.529 171.928 191.034 174.877 191.034ZM292.794 191.034C295.01 191.034 297.158 191.401 299.237 192.134C301.317 192.867 303.184 194.017 304.837 195.585C306.49 197.153 307.794 199.191 308.749 201.696C309.703 204.185 310.181 207.21 310.181 210.772V213.483H282.268C282.327 215.877 282.784 217.931 283.641 219.646C284.578 221.486 285.882 222.893 287.553 223.864C289.223 224.819 291.175 225.296 293.407 225.296C294.856 225.296 296.178 225.091 297.371 224.682C298.564 224.256 299.596 223.625 300.465 222.79C301.334 221.955 301.999 220.923 302.459 219.696L309.694 221C309.115 223.131 308.075 224.997 306.575 226.6C305.092 228.185 303.226 229.42 300.976 230.307C298.743 231.176 296.195 231.611 293.331 231.611C289.462 231.611 286.129 230.784 283.334 229.131C280.556 227.46 278.408 225.117 276.891 222.1C275.391 219.066 274.641 215.511 274.641 211.438C274.641 207.415 275.391 203.87 276.891 200.802C278.408 197.734 280.521 195.338 283.231 193.616C285.959 191.895 289.146 191.034 292.794 191.034ZM481.938 191.034C484.92 191.034 487.579 191.588 489.914 192.696C492.249 193.787 494.134 195.322 495.565 197.299C497.014 199.276 497.875 201.586 498.147 204.228H490.707C490.298 202.387 489.36 200.801 487.895 199.472C486.446 198.142 484.503 197.478 482.065 197.478C479.935 197.478 478.068 198.04 476.466 199.165C474.881 200.273 473.644 201.858 472.758 203.921C471.872 205.966 471.429 208.386 471.429 211.182C471.429 214.045 471.863 216.517 472.732 218.597C473.602 220.676 474.829 222.287 476.414 223.429C478.016 224.571 479.901 225.143 482.065 225.143C483.514 225.143 484.827 224.878 486.003 224.35C487.196 223.804 488.193 223.028 488.994 222.022C489.812 221.017 490.383 219.807 490.707 218.393H498.147C497.875 220.932 497.048 223.199 495.667 225.193C494.286 227.188 492.437 228.755 490.119 229.897C487.818 231.04 485.116 231.611 482.014 231.611C478.213 231.611 474.94 230.75 472.195 229.028C469.468 227.29 467.372 224.895 465.906 221.844C464.44 218.793 463.707 215.299 463.707 211.361C463.707 207.373 464.457 203.853 465.957 200.802C467.457 197.734 469.571 195.338 472.298 193.616C475.025 191.895 478.239 191.034 481.938 191.034ZM520.865 191.034C524.547 191.034 527.761 191.878 530.505 193.565C533.249 195.253 535.379 197.623 536.896 200.674C538.413 203.725 539.172 207.288 539.172 211.361C539.172 215.418 538.413 218.963 536.896 221.997C535.379 225.031 533.249 227.393 530.505 229.08C527.761 230.768 524.547 231.611 520.865 231.611C517.184 231.611 513.971 230.767 511.227 229.08C508.482 227.393 506.351 225.031 504.834 221.997C503.317 218.963 502.559 215.418 502.559 211.361C502.559 207.288 503.317 203.725 504.834 200.674C506.351 197.623 508.482 195.253 511.227 193.565C513.971 191.878 517.184 191.034 520.865 191.034ZM646.912 191.034C650.594 191.034 653.807 191.878 656.552 193.565C659.296 195.253 661.426 197.623 662.943 200.674C664.46 203.725 665.219 207.288 665.219 211.361C665.219 215.418 664.46 218.963 662.943 221.997C661.426 225.031 659.296 227.393 656.552 229.08C653.807 230.768 650.594 231.611 646.912 231.611C643.231 231.611 640.018 230.767 637.273 229.08C634.529 227.393 632.398 225.031 630.881 221.997C629.364 218.963 628.606 215.418 628.605 211.361C628.605 207.288 629.364 203.725 630.881 200.674C632.398 197.623 634.529 195.253 637.273 193.565C640.018 191.878 643.23 191.034 646.912 191.034ZM446.618 230.818H439.152V224.708H438.514C438.053 225.543 437.389 226.498 436.52 227.571C435.667 228.645 434.491 229.583 432.991 230.384C431.491 231.185 429.547 231.585 427.161 231.585C423.991 231.585 421.161 230.776 418.673 229.156C416.201 227.52 414.258 225.194 412.843 222.177C411.445 219.143 410.746 215.503 410.746 211.259C410.746 207.014 411.453 203.383 412.868 200.366C414.3 197.349 416.26 195.04 418.749 193.438C421.238 191.835 424.059 191.034 427.212 191.034C429.649 191.034 431.61 191.444 433.093 192.262C434.593 193.063 435.752 194 436.57 195.074C437.405 196.148 438.053 197.094 438.514 197.912H438.974V178.455H446.618V230.818ZM86.9609 191.546H95.0146V197.682H86.9609V219.287C86.9609 220.77 87.1818 221.887 87.625 222.637C88.0682 223.37 88.64 223.873 89.3389 224.146C90.0546 224.401 90.8301 224.528 91.665 224.528C92.2787 224.528 92.8161 224.486 93.2764 224.4C93.7362 224.315 94.094 224.247 94.3496 224.196L95.7305 230.512C95.2874 230.682 94.6568 230.852 93.8389 231.022C93.0207 231.21 91.9977 231.313 90.7705 231.33C88.7592 231.364 86.8841 231.006 85.1455 230.256C83.4069 229.506 82.0006 228.347 80.9268 226.778C79.8529 225.21 79.3154 223.241 79.3154 220.872V197.682H73.5625V191.546H79.3154V182.137H86.9609V191.546ZM207.184 191.546H215.237V197.682H207.184V219.287C207.184 220.77 207.404 221.887 207.848 222.637C208.291 223.37 208.863 223.873 209.562 224.146C210.277 224.401 211.053 224.528 211.888 224.528C212.501 224.528 213.039 224.486 213.499 224.4C213.959 224.315 214.317 224.247 214.572 224.196L215.953 230.512C215.51 230.682 214.879 230.852 214.062 231.022C213.243 231.21 212.22 231.313 210.993 231.33C208.982 231.364 207.107 231.006 205.368 230.256C203.63 229.506 202.223 228.347 201.149 226.778C200.076 225.21 199.538 223.241 199.538 220.872V197.682H193.785V191.546H199.538V182.137H207.184V191.546ZM709.984 191.546H718.038V197.682H709.984V219.287C709.984 220.77 710.205 221.887 710.648 222.637C711.092 223.37 711.663 223.873 712.362 224.146C713.078 224.401 713.853 224.528 714.688 224.528C715.302 224.528 715.84 224.486 716.3 224.4C716.76 224.315 717.117 224.247 717.373 224.196L718.754 230.512C718.311 230.682 717.68 230.852 716.862 231.022C716.044 231.21 715.021 231.313 713.794 231.33C711.783 231.364 709.908 231.006 708.169 230.256C706.43 229.506 705.024 228.347 703.95 226.778C702.876 225.21 702.339 223.241 702.339 220.872V197.682H696.586V191.546H702.339V182.137H709.984V191.546ZM15.8926 220.387H16.2764L23.9971 191.546H31.8984L39.5684 220.259H39.9521L47.5967 191.546H55.4971L43.9658 230.818H36.168L28.1904 202.463H27.6025L19.625 230.818H11.8525L0.295898 191.546H8.19629L15.8926 220.387ZM68.3975 230.818H60.7529V191.546H68.3975V230.818ZM109.857 197.938H110.344C111.264 195.824 112.671 194.145 114.562 192.9C116.454 191.656 118.926 191.034 121.977 191.034C124.67 191.034 127.023 191.588 129.034 192.696C131.062 193.804 132.63 195.458 133.738 197.656C134.863 199.838 135.426 202.565 135.426 205.838V230.818H127.781V206.759C127.781 203.878 127.04 201.645 125.557 200.06C124.074 198.457 122.011 197.656 119.369 197.656C117.562 197.656 115.943 198.04 114.511 198.807C113.096 199.574 111.979 200.699 111.161 202.182C110.36 203.648 109.96 205.421 109.96 207.5V230.818H102.315V178.455H109.857V197.938ZM268.12 230.818H260.476V178.455H268.12V230.818ZM390.835 191.034C393.511 191.034 395.855 191.597 397.866 192.722C399.877 193.83 401.437 195.483 402.545 197.682C403.653 199.88 404.207 202.599 404.207 205.838V230.818H396.562V206.759C396.562 203.912 395.82 201.687 394.337 200.085C392.854 198.466 390.817 197.656 388.227 197.656C386.454 197.656 384.877 198.04 383.496 198.807C382.133 199.574 381.05 200.699 380.249 202.182C379.465 203.648 379.073 205.421 379.073 207.5V230.818H371.429V191.546H378.767V197.938H379.252C380.155 195.858 381.57 194.188 383.496 192.927C385.439 191.665 387.886 191.034 390.835 191.034ZM586.973 191.034C590.535 191.034 593.441 192.151 595.691 194.384C597.958 196.617 599.092 199.983 599.092 204.483V230.818H591.447V205.199C591.447 202.54 590.722 200.614 589.273 199.421C587.825 198.228 586.094 197.631 584.083 197.631C581.595 197.631 579.66 198.398 578.279 199.932C576.899 201.449 576.208 203.401 576.208 205.787V230.818H568.589V204.713C568.589 202.582 567.924 200.87 566.595 199.574C565.265 198.279 563.535 197.631 561.404 197.631C559.956 197.631 558.618 198.014 557.391 198.781C556.18 199.531 555.2 200.58 554.45 201.927C553.717 203.273 553.351 204.833 553.351 206.605V230.818H545.706V191.546H553.044V197.938H553.529C554.347 195.773 555.686 194.085 557.544 192.875C559.402 191.648 561.626 191.034 564.217 191.034C566.842 191.034 569.041 191.648 570.813 192.875C572.603 194.102 573.924 195.79 574.776 197.938H575.186C576.123 195.841 577.615 194.171 579.66 192.927C581.706 191.665 584.143 191.034 586.973 191.034ZM621.58 176C623.114 176 624.427 176.128 625.518 176.384C626.608 176.622 627.418 176.844 627.946 177.049L626.156 183.236C625.798 183.134 625.339 183.014 624.776 182.878C624.214 182.725 623.532 182.647 622.73 182.647C620.873 182.647 619.543 183.108 618.742 184.028C617.958 184.949 617.565 186.279 617.565 188.018V191.546H626.028V197.682H617.565V230.818H609.921V197.682H603.836V191.546H609.921V186.994C609.921 184.54 610.458 182.503 611.531 180.884C612.605 179.247 614.029 178.029 615.802 177.228C617.574 176.409 619.501 176 621.58 176ZM689.522 190.958C690 190.958 690.562 190.975 691.21 191.009C691.875 191.043 692.395 191.086 692.77 191.137V198.449C692.463 198.364 691.917 198.27 691.133 198.168C690.349 198.049 689.565 197.989 688.781 197.989C686.974 197.989 685.363 198.373 683.948 199.14C682.551 199.89 681.443 200.938 680.625 202.284C679.807 203.614 679.398 205.131 679.397 206.835V230.818H671.753V191.546H679.142V197.784H679.551C680.267 195.671 681.528 194.009 683.335 192.799C685.159 191.572 687.221 190.958 689.522 190.958ZM355.601 211.591C355.328 211.864 354.8 212.12 354.016 212.358C353.249 212.58 352.37 212.776 351.382 212.946C350.393 213.1 349.43 213.245 348.493 213.381C347.556 213.5 346.771 213.602 346.141 213.688C344.658 213.875 343.302 214.191 342.075 214.634C340.865 215.077 339.893 215.717 339.16 216.552C338.444 217.37 338.087 218.461 338.087 219.824C338.087 221.716 338.786 223.148 340.184 224.119C341.581 225.074 343.363 225.552 345.527 225.552C347.641 225.552 349.447 225.134 350.947 224.299C352.464 223.464 353.615 222.372 354.399 221.025C355.2 219.662 355.601 218.204 355.601 216.653V211.591ZM520.891 197.427C518.487 197.427 516.493 198.066 514.908 199.344C513.34 200.622 512.172 202.318 511.405 204.432C510.655 206.528 510.28 208.829 510.28 211.335C510.28 213.858 510.655 216.168 511.405 218.265C512.172 220.361 513.34 222.04 514.908 223.302C516.493 224.563 518.488 225.193 520.891 225.193C523.277 225.193 525.255 224.563 526.823 223.302C528.391 222.04 529.55 220.361 530.3 218.265C531.067 216.168 531.45 213.858 531.45 211.335C531.45 208.829 531.067 206.528 530.3 204.432C529.55 202.318 528.391 200.622 526.823 199.344C525.255 198.065 523.277 197.427 520.891 197.427ZM646.938 197.427C644.534 197.427 642.54 198.066 640.955 199.344C639.387 200.622 638.219 202.318 637.452 204.432C636.702 206.528 636.327 208.829 636.327 211.335C636.327 213.858 636.702 216.168 637.452 218.265C638.219 220.361 639.387 222.04 640.955 223.302C642.54 224.563 644.534 225.193 646.938 225.193C649.324 225.193 651.302 224.563 652.87 223.302C654.438 222.04 655.597 220.361 656.347 218.265C657.114 216.168 657.497 213.858 657.497 211.335C657.497 208.829 657.114 206.528 656.347 204.432C655.597 202.318 654.438 200.622 652.87 199.344C651.302 198.065 649.324 197.427 646.938 197.427ZM428.849 197.528C426.548 197.528 424.63 198.125 423.096 199.318C421.562 200.512 420.402 202.14 419.618 204.202C418.851 206.264 418.468 208.591 418.468 211.182C418.468 213.807 418.86 216.168 419.645 218.265C420.429 220.361 421.587 222.023 423.121 223.25C424.672 224.46 426.582 225.065 428.849 225.065C431.047 225.065 432.906 224.486 434.423 223.327C435.957 222.151 437.115 220.523 437.899 218.443C438.701 216.364 439.102 213.943 439.102 211.182C439.102 208.455 438.71 206.068 437.926 204.022C437.142 201.977 435.991 200.383 434.474 199.241C432.957 198.099 431.081 197.528 428.849 197.528ZM292.845 197.35C290.697 197.35 288.822 197.878 287.22 198.935C285.635 199.974 284.407 201.338 283.538 203.025C282.791 204.491 282.371 206.068 282.279 207.756H302.688C302.688 205.745 302.28 203.963 301.462 202.412C300.644 200.844 299.493 199.608 298.01 198.705C296.544 197.802 294.822 197.35 292.845 197.35ZM64.6133 176.358C65.9427 176.358 67.0762 176.81 68.0137 177.713C68.9682 178.599 69.4452 179.673 69.4453 180.935C69.4453 182.179 68.9682 183.253 68.0137 184.156C67.0762 185.043 65.9428 185.486 64.6133 185.486C63.2838 185.486 62.142 185.043 61.1875 184.156C60.25 183.253 59.7812 182.179 59.7812 180.935C59.7813 179.673 60.2501 178.599 61.1875 177.713C62.142 176.81 63.2839 176.358 64.6133 176.358ZM85.6357 103.034C87.2039 103.034 88.8664 103.222 90.6221 103.597C92.3947 103.955 94.048 104.619 95.582 105.591C97.1332 106.562 98.403 107.952 99.3916 109.759C100.38 111.549 100.875 113.876 100.875 116.739V142.818H93.4092V137.449H93.1016C92.6072 138.438 91.8665 139.41 90.8779 140.364C89.8893 141.319 88.6185 142.111 87.0674 142.741C85.5163 143.372 83.6587 143.687 81.4941 143.688C79.0055 143.688 76.7555 143.227 74.7441 142.307C72.7328 141.369 71.139 140.014 69.9629 138.241C68.8039 136.469 68.2236 134.295 68.2236 131.722C68.2236 129.506 68.6507 127.682 69.5029 126.25C70.3552 124.818 71.5054 123.685 72.9541 122.85C74.403 122.014 76.0227 121.384 77.8125 120.958C79.6022 120.532 81.4263 120.208 83.2842 119.986C85.6361 119.714 87.545 119.492 89.0107 119.321C90.4765 119.134 91.5422 118.836 92.207 118.427C92.8718 118.018 93.2041 117.352 93.2041 116.432V116.253C93.2041 114.02 92.5738 112.29 91.3125 111.062C90.0682 109.835 88.2099 109.222 85.7383 109.222C83.1646 109.222 81.1362 109.793 79.6533 110.935C78.1874 112.06 77.1729 113.313 76.6104 114.693L69.4258 113.057C70.2781 110.67 71.5229 108.744 73.1592 107.278C74.8125 105.796 76.7128 104.721 78.8604 104.057C81.008 103.375 83.2665 103.034 85.6357 103.034ZM214.864 103.034C217.08 103.034 219.228 103.401 221.308 104.134C223.387 104.867 225.254 106.017 226.907 107.585C228.561 109.153 229.865 111.191 230.819 113.696C231.774 116.185 232.251 119.21 232.251 122.772V125.483H204.338C204.397 127.877 204.854 129.931 205.711 131.646C206.648 133.486 207.953 134.893 209.623 135.864C211.293 136.819 213.245 137.296 215.478 137.296C216.926 137.296 218.248 137.091 219.441 136.682C220.634 136.256 221.666 135.625 222.535 134.79C223.404 133.955 224.069 132.923 224.529 131.696L231.765 133C231.185 135.131 230.146 136.997 228.646 138.6C227.163 140.185 225.296 141.42 223.046 142.307C220.813 143.176 218.265 143.611 215.401 143.611C211.532 143.611 208.2 142.784 205.404 141.131C202.626 139.46 200.478 137.117 198.961 134.1C197.461 131.066 196.711 127.511 196.711 123.438C196.711 119.415 197.461 115.87 198.961 112.802C200.478 109.734 202.592 107.338 205.302 105.616C208.029 103.895 211.217 103.034 214.864 103.034ZM255.122 103.034C257.338 103.034 259.486 103.401 261.565 104.134C263.645 104.867 265.512 106.017 267.165 107.585C268.818 109.153 270.123 111.191 271.077 113.696C272.032 116.185 272.509 119.21 272.509 122.772V125.483H244.596C244.655 127.877 245.112 129.931 245.969 131.646C246.906 133.486 248.211 134.893 249.881 135.864C251.551 136.819 253.503 137.296 255.735 137.296C257.184 137.296 258.506 137.091 259.699 136.682C260.892 136.256 261.924 135.625 262.793 134.79C263.662 133.955 264.327 132.923 264.787 131.696L272.022 133C271.443 135.131 270.403 136.997 268.903 138.6C267.42 140.185 265.554 141.42 263.304 142.307C261.071 143.176 258.523 143.611 255.659 143.611C251.79 143.611 248.458 142.784 245.662 141.131C242.884 139.46 240.736 137.117 239.219 134.1C237.719 131.066 236.969 127.511 236.969 123.438C236.969 119.415 237.719 115.87 239.219 112.802C240.736 109.734 242.849 107.338 245.56 105.616C248.287 103.895 251.474 103.034 255.122 103.034ZM309.494 103.034C313.738 103.034 317.079 103.955 319.517 105.796C321.954 107.62 323.566 110.066 324.35 113.134L317.421 114.361C317.131 113.475 316.671 112.631 316.04 111.83C315.426 111.029 314.591 110.373 313.534 109.861C312.477 109.35 311.156 109.094 309.571 109.094C307.407 109.094 305.599 109.58 304.15 110.552C302.702 111.506 301.978 112.742 301.978 114.259C301.978 115.571 302.463 116.628 303.435 117.429C304.406 118.23 305.975 118.886 308.14 119.397L314.378 120.83C317.991 121.665 320.684 122.952 322.457 124.69C324.23 126.429 325.116 128.688 325.116 131.466C325.116 133.818 324.435 135.915 323.071 137.756C321.725 139.58 319.841 141.012 317.421 142.052C315.017 143.092 312.23 143.611 309.06 143.611C304.662 143.611 301.074 142.674 298.296 140.799C295.517 138.907 293.812 136.221 293.182 132.744L300.571 131.619C301.032 133.545 301.977 135.003 303.409 135.991C304.841 136.963 306.708 137.449 309.009 137.449C311.514 137.449 313.517 136.929 315.017 135.89C316.517 134.833 317.267 133.545 317.267 132.028C317.267 130.801 316.807 129.77 315.887 128.935C314.983 128.099 313.594 127.469 311.719 127.043L305.071 125.585C301.407 124.75 298.696 123.421 296.94 121.597C295.202 119.773 294.332 117.463 294.332 114.668C294.332 112.35 294.98 110.322 296.275 108.583C297.571 106.844 299.361 105.489 301.645 104.518C303.929 103.529 306.545 103.034 309.494 103.034ZM465.903 103.034C468.119 103.034 470.267 103.401 472.347 104.134C474.426 104.867 476.293 106.017 477.946 107.585C479.6 109.153 480.904 111.191 481.858 113.696C482.813 116.185 483.29 119.21 483.29 122.772V125.483H455.377C455.436 127.877 455.893 129.931 456.75 131.646C457.687 133.486 458.992 134.893 460.662 135.864C462.332 136.819 464.284 137.296 466.517 137.296C467.965 137.296 469.287 137.091 470.48 136.682C471.673 136.256 472.705 135.625 473.574 134.79C474.443 133.955 475.108 132.923 475.568 131.696L482.804 133C482.224 135.131 481.185 136.997 479.685 138.6C478.202 140.185 476.335 141.42 474.085 142.307C471.852 143.176 469.304 143.611 466.44 143.611C462.571 143.611 459.239 142.784 456.443 141.131C453.665 139.46 451.517 137.117 450 134.1C448.5 131.066 447.75 127.511 447.75 123.438C447.75 119.415 448.5 115.87 450 112.802C451.517 109.734 453.631 107.338 456.341 105.616C459.068 103.895 462.256 103.034 465.903 103.034ZM598.045 103.034C601.727 103.034 604.94 103.878 607.685 105.565C610.429 107.253 612.559 109.623 614.076 112.674C615.593 115.725 616.352 119.288 616.352 123.361C616.352 127.418 615.593 130.963 614.076 133.997C612.559 137.031 610.429 139.393 607.685 141.08C604.94 142.768 601.727 143.611 598.045 143.611C594.363 143.611 591.15 142.767 588.406 141.08C585.662 139.393 583.531 137.031 582.014 133.997C580.497 130.963 579.738 127.418 579.738 123.361C579.738 119.288 580.497 115.725 582.014 112.674C583.531 109.623 585.662 107.253 588.406 105.565C591.15 103.878 594.363 103.034 598.045 103.034ZM700.907 103.034C703.123 103.034 705.271 103.401 707.351 104.134C709.43 104.867 711.297 106.017 712.95 107.585C714.604 109.153 715.908 111.191 716.862 113.696C717.817 116.185 718.294 119.21 718.294 122.772V125.483H690.381C690.44 127.877 690.897 129.931 691.754 131.646C692.691 133.486 693.996 134.893 695.666 135.864C697.336 136.819 699.288 137.296 701.521 137.296C702.969 137.296 704.291 137.091 705.484 136.682C706.677 136.256 707.709 135.625 708.578 134.79C709.447 133.955 710.112 132.923 710.572 131.696L717.808 133C717.228 135.131 716.188 136.997 714.688 138.6C713.206 140.185 711.339 141.42 709.089 142.307C706.856 143.176 704.308 143.611 701.444 143.611C697.575 143.611 694.243 142.784 691.447 141.131C688.669 139.46 686.521 137.117 685.004 134.1C683.504 131.066 682.754 127.511 682.754 123.438C682.754 119.415 683.504 115.87 685.004 112.802C686.521 109.734 688.634 107.338 691.345 105.616C694.072 103.895 697.26 103.034 700.907 103.034ZM13.3984 103.546H21.4521V109.682H13.3984V131.287C13.3984 132.77 13.6193 133.887 14.0625 134.637C14.5057 135.37 15.0775 135.873 15.7764 136.146C16.4921 136.401 17.2676 136.528 18.1025 136.528C18.7162 136.528 19.2536 136.486 19.7139 136.4C20.1737 136.315 20.5315 136.247 20.7871 136.196L22.168 142.512C21.7249 142.682 21.0943 142.852 20.2764 143.022C19.4582 143.21 18.4352 143.313 17.208 143.33C15.1967 143.364 13.3216 143.006 11.583 142.256C9.84437 141.506 8.43812 140.347 7.36426 138.778C6.29042 137.21 5.75293 135.241 5.75293 132.872V109.682H0V103.546H5.75293V94.1367H13.3984V103.546ZM119.336 103.546H127.39V109.682H119.336V131.287C119.336 132.77 119.557 133.887 120 134.637C120.443 135.37 121.015 135.873 121.714 136.146C122.43 136.401 123.205 136.528 124.04 136.528C124.654 136.528 125.191 136.486 125.651 136.4C126.111 136.315 126.469 136.247 126.725 136.196L128.105 142.512C127.662 142.682 127.032 142.852 126.214 143.022C125.396 143.21 124.373 143.313 123.146 143.33C121.134 143.364 119.259 143.006 117.521 142.256C115.782 141.506 114.376 140.347 113.302 138.778C112.228 137.21 111.69 135.241 111.69 132.872V109.682H105.938V103.546H111.69V94.1367H119.336V103.546ZM36.2949 109.938H36.7812C37.7017 107.824 39.108 106.145 41 104.9C42.8919 103.656 45.3633 103.034 48.4141 103.034C51.1072 103.034 53.4603 103.588 55.4717 104.696C57.4999 105.804 59.0679 107.458 60.1758 109.656C61.3007 111.838 61.8632 114.565 61.8633 117.838V142.818H54.2188V118.759C54.2188 115.878 53.4771 113.645 51.9941 112.06C50.5112 110.457 48.4486 109.656 45.8066 109.656C43.9998 109.656 42.3801 110.04 40.9482 110.807C39.5335 111.574 38.4168 112.699 37.5986 114.182C36.7975 115.648 36.3975 117.421 36.3975 119.5V142.818H28.7529V90.4551H36.2949V109.938ZM189.686 88C191.22 88 192.532 88.1281 193.623 88.3838C194.714 88.6224 195.523 88.8443 196.052 89.0488L194.262 95.2363C193.904 95.1341 193.444 95.0142 192.882 94.8779C192.319 94.7245 191.637 94.6475 190.836 94.6475C188.978 94.6475 187.649 95.1081 186.848 96.0283C186.064 96.9488 185.671 98.2789 185.671 100.018V103.546H194.134V109.682H185.671V142.818H178.026V109.682H171.941V103.546H178.026V98.9941C178.026 96.5399 178.563 94.503 179.637 92.8838C180.711 91.2474 182.134 90.0287 183.907 89.2275C185.68 88.4094 187.606 88 189.686 88ZM286.636 142.818H278.991V90.4551H286.636V142.818ZM388.839 142.818H381.194V90.4551H388.839V142.818ZM404.769 142.818H397.124V103.546H404.769V142.818ZM420.698 120.165H421.363L437.011 103.546H446.164L430.264 120.401L447.238 142.818H437.854L424.495 125.086L420.698 128.884V142.818H413.054V90.4551H420.698V120.165ZM547.732 109.938H548.219C549.139 107.824 550.546 106.145 552.438 104.9C554.329 103.656 556.801 103.034 559.852 103.034C562.545 103.034 564.898 103.588 566.909 104.696C568.937 105.804 570.505 107.458 571.613 109.656C572.738 111.838 573.301 114.565 573.301 117.838V142.818H565.656V118.759C565.656 115.878 564.915 113.645 563.432 112.06C561.949 110.457 559.886 109.656 557.244 109.656C555.437 109.656 553.818 110.04 552.386 110.807C550.971 111.574 549.854 112.699 549.036 114.182C548.235 115.648 547.835 117.421 547.835 119.5V142.818H540.19V90.4551H547.732V109.938ZM664.152 103.034C667.715 103.034 670.621 104.151 672.871 106.384C675.138 108.617 676.271 111.983 676.271 116.483V142.818H668.627V117.199C668.627 114.54 667.902 112.614 666.453 111.421C665.004 110.228 663.274 109.631 661.263 109.631C658.774 109.631 656.84 110.398 655.459 111.932C654.078 113.449 653.388 115.401 653.388 117.787V142.818H645.769V116.713C645.768 114.582 645.104 112.87 643.774 111.574C642.445 110.279 640.715 109.631 638.584 109.631C637.135 109.631 635.797 110.014 634.57 110.781C633.36 111.531 632.38 112.58 631.63 113.927C630.897 115.273 630.53 116.833 630.53 118.605V142.818H622.886V103.546H630.224V109.938H630.709C631.527 107.773 632.866 106.085 634.724 104.875C636.581 103.648 638.806 103.034 641.396 103.034C644.021 103.034 646.22 103.648 647.993 104.875C649.783 106.102 651.104 107.79 651.956 109.938H652.365C653.303 107.841 654.795 106.171 656.84 104.927C658.885 103.665 661.323 103.034 664.152 103.034ZM93.2295 123.591C92.9568 123.864 92.4286 124.12 91.6445 124.358C90.8775 124.58 89.9993 124.776 89.0107 124.946C88.0223 125.1 87.0594 125.245 86.1221 125.381C85.1846 125.5 84.4002 125.602 83.7695 125.688C82.2866 125.875 80.9314 126.191 79.7041 126.634C78.4939 127.077 77.522 127.717 76.7891 128.552C76.0734 129.37 75.7158 130.461 75.7158 131.824C75.7159 133.716 76.4148 135.148 77.8125 136.119C79.2102 137.074 80.9915 137.552 83.1562 137.552C85.2696 137.552 87.0763 137.134 88.5762 136.299C90.0932 135.464 91.2442 134.372 92.0283 133.025C92.8293 131.662 93.2295 130.204 93.2295 128.653V123.591ZM598.07 109.427C595.667 109.427 593.673 110.066 592.088 111.344C590.52 112.622 589.352 114.318 588.585 116.432C587.835 118.528 587.46 120.829 587.46 123.335C587.46 125.858 587.835 128.168 588.585 130.265C589.352 132.361 590.52 134.04 592.088 135.302C593.673 136.563 595.667 137.193 598.07 137.193C600.457 137.193 602.435 136.563 604.003 135.302C605.571 134.04 606.729 132.361 607.479 130.265C608.247 128.168 608.63 125.858 608.63 123.335C608.63 120.829 608.246 118.528 607.479 116.432C606.73 114.318 605.571 112.622 604.003 111.344C602.435 110.065 600.457 109.427 598.07 109.427ZM700.958 109.35C698.81 109.35 696.935 109.878 695.333 110.935C693.748 111.974 692.521 113.338 691.651 115.025C690.904 116.491 690.484 118.068 690.393 119.756H710.802C710.802 117.745 710.393 115.963 709.575 114.412C708.757 112.844 707.606 111.608 706.123 110.705C704.657 109.802 702.935 109.35 700.958 109.35ZM214.915 109.35C212.767 109.35 210.892 109.878 209.29 110.935C207.705 111.974 206.478 113.338 205.608 115.025C204.861 116.491 204.441 118.068 204.35 119.756H224.759C224.759 117.745 224.35 115.963 223.532 114.412C222.714 112.844 221.563 111.608 220.08 110.705C218.614 109.802 216.892 109.35 214.915 109.35ZM255.173 109.35C253.025 109.35 251.15 109.878 249.548 110.935C247.963 111.974 246.735 113.338 245.866 115.025C245.119 116.491 244.699 118.068 244.607 119.756H265.017C265.017 117.745 264.608 115.963 263.79 114.412C262.972 112.844 261.821 111.608 260.338 110.705C258.872 109.802 257.15 109.35 255.173 109.35ZM465.954 109.35C463.807 109.35 461.931 109.878 460.329 110.935C458.744 111.974 457.517 113.338 456.647 115.025C455.9 116.491 455.481 118.068 455.389 119.756H475.798C475.798 117.745 475.389 115.963 474.571 114.412C473.753 112.844 472.602 111.608 471.119 110.705C469.653 109.802 467.931 109.35 465.954 109.35ZM400.984 88.3584C402.314 88.3584 403.447 88.8097 404.385 89.7129C405.339 90.5992 405.816 91.6733 405.816 92.9346C405.816 94.1789 405.339 95.2528 404.385 96.1562C403.447 97.0426 402.314 97.4863 400.984 97.4863C399.655 97.4863 398.513 97.0426 397.559 96.1562C396.621 95.2528 396.152 94.1789 396.152 92.9346C396.152 91.6733 396.621 90.5992 397.559 89.7129C398.513 88.8097 399.655 88.3584 400.984 88.3584ZM304.199 15.0342C307.37 15.0342 310.2 15.8352 312.688 17.4375C315.177 19.0397 317.128 21.3495 318.543 24.3662C319.975 27.3833 320.691 31.0145 320.691 35.2588C320.691 39.5031 319.984 43.1427 318.569 46.1768C317.155 49.1937 315.211 51.5199 312.739 53.1562C310.268 54.7756 307.447 55.5849 304.276 55.585C301.89 55.585 299.938 55.1849 298.421 54.3838C296.921 53.5827 295.745 52.6451 294.893 51.5713C294.04 50.4976 293.384 49.5432 292.924 48.708H292.464V69.5459H284.819V15.5459H292.285V21.9121H292.924C293.367 21.0939 294.007 20.1481 294.842 19.0742C295.677 18.0004 296.836 17.0629 298.319 16.2617C299.802 15.4437 301.762 15.0342 304.199 15.0342ZM685.327 15.0342C686.895 15.0342 688.558 15.2217 690.313 15.5967C692.086 15.9546 693.739 16.6193 695.273 17.5908C696.825 18.5624 698.094 19.952 699.083 21.7588C700.072 23.5486 700.566 25.8756 700.566 28.7393V54.8184H693.101V49.4492H692.793C692.299 50.4378 691.558 51.4098 690.569 52.3643C689.581 53.3188 688.31 54.1105 686.759 54.7412C685.208 55.3718 683.35 55.6875 681.186 55.6875C678.697 55.6875 676.447 55.2271 674.436 54.3066C672.424 53.3691 670.83 52.0139 669.654 50.2412C668.495 48.4685 667.915 46.2954 667.915 43.7217C667.915 41.5058 668.342 39.6818 669.194 38.25C670.047 36.8184 671.197 35.6848 672.646 34.8496C674.094 34.0144 675.714 33.3841 677.504 32.958C679.294 32.5319 681.118 32.2079 682.976 31.9863C685.328 31.7136 687.236 31.4917 688.702 31.3213C690.168 31.1338 691.234 30.8358 691.898 30.4268C692.563 30.0177 692.896 29.3521 692.896 28.4316V28.2529C692.895 26.0201 692.265 24.2898 691.004 23.0625C689.76 21.8352 687.901 21.2217 685.43 21.2217C682.856 21.2217 680.828 21.7927 679.345 22.9346C677.879 24.0596 676.864 25.3127 676.302 26.6934L669.117 25.0566C669.969 22.6704 671.214 20.7442 672.851 19.2783C674.504 17.7955 676.404 16.7214 678.552 16.0566C680.699 15.3749 682.958 15.0342 685.327 15.0342ZM243.896 15.0342C246.111 15.0342 248.259 15.4008 250.339 16.1338C252.418 16.8667 254.285 18.0168 255.938 19.585C257.592 21.1531 258.896 23.1906 259.851 25.6963C260.805 28.1848 261.282 31.2103 261.282 34.7725V37.4834H233.369C233.428 39.8771 233.885 41.9315 234.742 43.6455C235.68 45.4862 236.984 46.8927 238.654 47.8643C240.325 48.8186 242.276 49.2958 244.509 49.2959C245.958 49.2959 247.279 49.0907 248.473 48.6816C249.666 48.2555 250.697 47.6252 251.566 46.79C252.436 45.9548 253.1 44.9235 253.561 43.6963L260.796 45C260.216 47.1307 259.177 48.9973 257.677 50.5996C256.194 52.1848 254.327 53.4203 252.077 54.3066C249.844 55.1759 247.296 55.6113 244.433 55.6113C240.563 55.6113 237.231 54.7842 234.436 53.1309C231.657 51.4604 229.509 49.1167 227.992 46.0996C226.492 43.0655 225.742 39.5114 225.742 35.4375C225.742 31.415 226.492 27.8698 227.992 24.8018C229.509 21.7336 231.623 19.3378 234.333 17.6162C237.06 15.8947 240.248 15.0342 243.896 15.0342ZM343.646 15.0342C345.861 15.0342 348.009 15.4008 350.089 16.1338C352.168 16.8667 354.035 18.0168 355.688 19.585C357.342 21.1531 358.646 23.1906 359.601 25.6963C360.555 28.1848 361.032 31.2103 361.032 34.7725V37.4834H333.119C333.178 39.8771 333.635 41.9315 334.492 43.6455C335.43 45.4862 336.734 46.8927 338.404 47.8643C340.075 48.8186 342.026 49.2958 344.259 49.2959C345.708 49.2959 347.029 49.0907 348.223 48.6816C349.416 48.2555 350.447 47.6252 351.316 46.79C352.186 45.9548 352.85 44.9235 353.311 43.6963L360.546 45C359.966 47.1307 358.927 48.9973 357.427 50.5996C355.944 52.1848 354.077 53.4203 351.827 54.3066C349.594 55.1759 347.046 55.6113 344.183 55.6113C340.313 55.6113 336.981 54.7842 334.186 53.1309C331.407 51.4604 329.259 49.1167 327.742 46.0996C326.242 43.0655 325.492 39.5114 325.492 35.4375C325.492 31.415 326.242 27.8698 327.742 24.8018C329.259 21.7336 331.373 19.3378 334.083 17.6162C336.81 15.8947 339.998 15.0342 343.646 15.0342ZM434.888 15.0342C437.104 15.0342 439.252 15.4008 441.331 16.1338C443.411 16.8667 445.277 18.0168 446.931 19.585C448.584 21.1531 449.888 23.1906 450.843 25.6963C451.797 28.1848 452.274 31.2103 452.274 34.7725V37.4834H424.361C424.42 39.8771 424.877 41.9315 425.734 43.6455C426.672 45.4862 427.976 46.8927 429.646 47.8643C431.317 48.8186 433.268 49.2958 435.501 49.2959C436.95 49.2959 438.272 49.0907 439.465 48.6816C440.658 48.2555 441.689 47.6252 442.559 46.79C443.428 45.9548 444.093 44.9235 444.553 43.6963L451.788 45C451.209 47.1307 450.169 48.9973 448.669 50.5996C447.186 52.1848 445.319 53.4203 443.069 54.3066C440.836 55.1759 438.288 55.6113 435.425 55.6113C431.556 55.6113 428.223 54.7842 425.428 53.1309C422.649 51.4604 420.501 49.1167 418.984 46.0996C417.484 43.0655 416.734 39.5114 416.734 35.4375C416.734 31.415 417.485 27.8698 418.984 24.8018C420.501 21.7336 422.615 19.3378 425.325 17.6162C428.052 15.8947 431.24 15.0342 434.888 15.0342ZM475.223 15.0342C478.205 15.0342 480.864 15.5885 483.199 16.6963C485.534 17.7872 487.419 19.3216 488.851 21.2988C490.299 23.276 491.16 25.5857 491.433 28.2275H483.992C483.583 26.3866 482.646 24.8012 481.18 23.4717C479.731 22.1422 477.788 21.4776 475.351 21.4775C473.22 21.4775 471.353 22.0401 469.751 23.165C468.166 24.273 466.929 25.8584 466.043 27.9209C465.157 29.9662 464.714 32.3865 464.714 35.1816C464.714 38.0452 465.148 40.5172 466.018 42.5967C466.887 44.676 468.114 46.2867 469.699 47.4287C471.301 48.5708 473.186 49.1426 475.351 49.1426C476.799 49.1425 478.112 48.878 479.288 48.3496C480.481 47.8042 481.478 47.028 482.279 46.0225C483.097 45.0169 483.668 43.807 483.992 42.3926H491.433C491.16 44.9322 490.333 47.1991 488.952 49.1934C487.572 51.1875 485.722 52.7555 483.404 53.8975C481.103 55.0395 478.401 55.6113 475.299 55.6113C471.498 55.6113 468.225 54.7499 465.48 53.0283C462.753 51.2897 460.657 48.8947 459.191 45.8438C457.726 42.7927 456.992 39.2987 456.992 35.3613C456.992 31.3728 457.742 27.8528 459.242 24.8018C460.742 21.7336 462.856 19.3378 465.583 17.6162C468.31 15.8947 471.524 15.0342 475.223 15.0342ZM580.067 15.0342C582.283 15.0342 584.431 15.4008 586.511 16.1338C588.59 16.8667 590.457 18.0168 592.11 19.585C593.764 21.1531 595.068 23.1906 596.022 25.6963C596.977 28.1848 597.454 31.2103 597.454 34.7725V37.4834H569.541C569.6 39.8771 570.057 41.9315 570.914 43.6455C571.852 45.4862 573.156 46.8927 574.826 47.8643C576.496 48.8186 578.448 49.2958 580.681 49.2959C582.13 49.2959 583.451 49.0907 584.645 48.6816C585.838 48.2555 586.869 47.6252 587.738 46.79C588.608 45.9548 589.272 44.9235 589.732 43.6963L596.968 45C596.388 47.1307 595.349 48.9973 593.849 50.5996C592.366 52.1848 590.499 53.4203 588.249 54.3066C586.016 55.1759 583.468 55.6113 580.604 55.6113C576.735 55.6113 573.403 54.7842 570.607 53.1309C567.829 51.4604 565.681 49.1167 564.164 46.0996C562.664 43.0655 561.914 39.5114 561.914 35.4375C561.914 31.415 562.664 27.8698 564.164 24.8018C565.681 21.7336 567.795 19.3378 570.505 17.6162C573.232 15.8947 576.42 15.0342 580.067 15.0342ZM134.595 54.8184H127.129V48.708H126.49C126.03 49.5431 125.365 50.4976 124.496 51.5713C123.644 52.6451 122.468 53.5827 120.968 54.3838C119.468 55.1849 117.524 55.585 115.138 55.585C111.967 55.5849 109.138 54.7755 106.649 53.1562C104.178 51.5199 102.234 49.1937 100.819 46.1768C99.4216 43.1427 98.7227 39.5031 98.7227 35.2588C98.7227 31.0145 99.43 27.3833 100.845 24.3662C102.277 21.3493 104.237 19.0397 106.726 17.4375C109.214 15.8353 112.035 15.0343 115.188 15.0342C117.626 15.0342 119.586 15.4436 121.069 16.2617C122.569 17.0629 123.729 18.0004 124.547 19.0742C125.382 20.148 126.03 21.094 126.49 21.9121H126.95V2.45508H134.595V54.8184ZM170.84 15.5459H178.894V21.6816H170.84V43.2871C170.84 44.77 171.061 45.8867 171.504 46.6367C171.947 47.3697 172.519 47.8728 173.218 48.1455C173.934 48.4011 174.709 48.5283 175.544 48.5283C176.158 48.5283 176.695 48.4856 177.155 48.4004C177.615 48.3152 177.973 48.2474 178.229 48.1963L179.609 54.5117C179.166 54.6821 178.536 54.852 177.718 55.0225C176.9 55.2099 175.877 55.313 174.649 55.3301C172.638 55.3642 170.763 55.0058 169.024 54.2559C167.286 53.5059 165.88 52.3465 164.806 50.7783C163.732 49.2101 163.194 47.2414 163.194 44.8721V21.6816H157.441V15.5459H163.194V6.13672H170.84V15.5459ZM507.887 15.5459H515.94V21.6816H507.887V43.2871C507.887 44.77 508.108 45.8867 508.551 46.6367C508.994 47.3697 509.566 47.8728 510.265 48.1455C510.98 48.4011 511.756 48.5283 512.591 48.5283C513.204 48.5283 513.742 48.4856 514.202 48.4004C514.662 48.3152 515.02 48.2474 515.275 48.1963L516.656 54.5117C516.213 54.6821 515.583 54.852 514.765 55.0225C513.947 55.2099 512.923 55.313 511.696 55.3301C509.685 55.3642 507.81 55.0058 506.071 54.2559C504.333 53.5059 502.926 52.3465 501.853 50.7783C500.779 49.2101 500.241 47.2414 500.241 44.8721V21.6816H494.488V15.5459H500.241V6.13672H507.887V15.5459ZM655.246 15.5459H663.3V21.6816H655.246V43.2871C655.246 44.77 655.467 45.8867 655.91 46.6367C656.353 47.3697 656.925 47.8728 657.624 48.1455C658.34 48.4011 659.115 48.5283 659.95 48.5283C660.564 48.5283 661.101 48.4856 661.562 48.4004C662.021 48.3152 662.379 48.2474 662.635 48.1963L664.016 54.5117C663.573 54.6821 662.942 54.852 662.124 55.0225C661.306 55.2099 660.283 55.313 659.056 55.3301C657.044 55.3642 655.169 55.0058 653.431 54.2559C651.692 53.5059 650.286 52.3465 649.212 50.7783C648.138 49.2101 647.601 47.2414 647.601 44.8721V21.6816H641.848V15.5459H647.601V6.13672H655.246V15.5459ZM36.373 9.25586H11.8018V25.21H34.0459V31.9863H11.8018V54.8184H3.90137V2.45508H36.373V9.25586ZM51.1201 54.8184H43.4756V15.5459H51.1201V54.8184ZM78.8115 15.0342C81.4875 15.0342 83.8315 15.5967 85.8428 16.7217C87.8539 17.8296 89.4136 19.483 90.5215 21.6816C91.6294 23.8804 92.1836 26.5994 92.1836 29.8379V54.8184H84.5381V30.7588C84.5381 27.9122 83.7964 25.6872 82.3135 24.085C80.8306 22.466 78.7938 21.6562 76.2031 21.6562C74.4304 21.6562 72.8533 22.0396 71.4727 22.8066C70.1091 23.5737 69.0267 24.6988 68.2256 26.1816C67.4415 27.6475 67.0498 29.4205 67.0498 31.5V54.8184H59.4053V15.5459H66.7432V21.9375H67.2285C68.1319 19.8582 69.5468 18.1881 71.4727 16.9268C73.4158 15.6654 75.8627 15.0342 78.8115 15.0342ZM193.736 21.9375H194.223C195.143 19.824 196.549 18.1447 198.441 16.9004C200.333 15.6563 202.805 15.0342 205.855 15.0342C208.549 15.0342 210.902 15.5883 212.913 16.6963C214.941 17.8042 216.509 19.4576 217.617 21.6562C218.742 23.838 219.305 26.5653 219.305 29.8379V54.8184H211.66V30.7588C211.66 27.8781 210.919 25.6448 209.436 24.0596C207.953 22.4574 205.89 21.6563 203.248 21.6562C201.441 21.6562 199.821 22.0396 198.39 22.8066C196.975 23.5737 195.858 24.6987 195.04 26.1816C194.239 27.6475 193.839 29.4205 193.839 31.5V54.8184H186.194V2.45508H193.736V21.9375ZM385.284 14.958C385.761 14.958 386.324 14.9747 386.972 15.0088C387.636 15.0429 388.156 15.0856 388.531 15.1367V22.4492C388.224 22.364 387.679 22.2702 386.895 22.168C386.111 22.0487 385.327 21.9893 384.543 21.9893C382.736 21.9893 381.125 22.3726 379.71 23.1396C378.312 23.8896 377.205 24.9378 376.387 26.2842C375.569 27.6136 375.159 29.1306 375.159 30.835V54.8184H367.515V15.5459H374.903V21.7842H375.312C376.028 19.6706 377.29 18.009 379.097 16.7988C380.921 15.5716 382.983 14.958 385.284 14.958ZM409.709 0C411.243 9.78811e-06 412.556 0.128115 413.646 0.383789C414.737 0.622409 415.547 0.844294 416.075 1.04883L414.285 7.23633C413.927 7.13409 413.467 7.01422 412.905 6.87793C412.343 6.72452 411.661 6.64746 410.859 6.64746C409.002 6.64746 407.672 7.10808 406.871 8.02832C406.087 8.94878 405.694 10.2789 405.694 12.0176V15.5459H414.157V21.6816H405.694V54.8184H398.05V21.6816H391.965V15.5459H398.05V10.9941C398.05 8.53987 398.586 6.50299 399.66 4.88379C400.734 3.24742 402.158 2.02867 403.931 1.22754C405.703 0.409412 407.63 0 409.709 0ZM557.222 14.958C557.699 14.958 558.261 14.9747 558.909 15.0088C559.574 15.0429 560.094 15.0856 560.469 15.1367V22.4492C560.162 22.364 559.616 22.2702 558.832 22.168C558.048 22.0487 557.264 21.9893 556.48 21.9893C554.674 21.9893 553.062 22.3726 551.647 23.1396C550.25 23.8896 549.142 24.9378 548.324 26.2842C547.506 27.6136 547.097 29.1306 547.097 30.835V54.8184H539.452V15.5459H546.841V21.7842H547.25C547.966 19.6706 549.227 18.009 551.034 16.7988C552.858 15.5716 554.921 14.958 557.222 14.958ZM623.343 15.0342C626.019 15.0342 628.363 15.5967 630.374 16.7217C632.385 17.8296 633.945 19.483 635.053 21.6816C636.161 23.8804 636.715 26.5994 636.715 29.8379V54.8184H629.069V30.7588C629.069 27.9122 628.328 25.6872 626.845 24.085C625.362 22.466 623.325 21.6562 620.734 21.6562C618.962 21.6562 617.385 22.0396 616.004 22.8066C614.64 23.5737 613.558 24.6988 612.757 26.1816C611.973 27.6475 611.581 29.4205 611.581 31.5V54.8184H603.937V15.5459H611.274V21.9375H611.76C612.663 19.8582 614.078 18.1881 616.004 16.9268C617.947 15.6654 620.394 15.0342 623.343 15.0342ZM716.394 54.8184H708.749V2.45508H716.394V54.8184ZM692.921 35.5908C692.648 35.8635 692.12 36.1198 691.336 36.3584C690.569 36.58 689.691 36.7758 688.702 36.9463C687.714 37.0997 686.751 37.2445 685.813 37.3809C684.876 37.5002 684.092 37.6023 683.461 37.6875C681.978 37.875 680.623 38.1906 679.396 38.6338C678.185 39.077 677.213 39.7166 676.48 40.5518C675.765 41.3699 675.407 42.4608 675.407 43.8242C675.407 45.7162 676.106 47.1476 677.504 48.1191C678.902 49.0737 680.683 49.5518 682.848 49.5518C684.961 49.5517 686.768 49.1339 688.268 48.2988C689.785 47.4636 690.936 46.372 691.72 45.0254C692.521 43.6619 692.921 42.2043 692.921 40.6533V35.5908ZM116.825 21.5283C114.524 21.5283 112.606 22.1252 111.072 23.3184C109.538 24.5115 108.379 26.1397 107.595 28.2021C106.828 30.2645 106.444 32.591 106.444 35.1816C106.444 37.8066 106.837 40.1681 107.621 42.2646C108.405 44.3609 109.564 46.0228 111.098 47.25C112.649 48.4602 114.558 49.0654 116.825 49.0654C119.024 49.0654 120.882 48.4862 122.399 47.3271C123.933 46.151 125.092 44.5228 125.876 42.4434C126.677 40.3638 127.078 37.943 127.078 35.1816C127.078 32.4545 126.686 30.0678 125.902 28.0225C125.118 25.9771 123.967 24.3832 122.45 23.2412C120.933 22.0993 119.058 21.5283 116.825 21.5283ZM302.563 21.5283C300.348 21.5283 298.472 22.0994 296.938 23.2412C295.422 24.3832 294.27 25.9772 293.486 28.0225C292.702 30.0678 292.311 32.4545 292.311 35.1816C292.311 37.943 292.711 40.3638 293.512 42.4434C294.313 44.5229 295.472 46.151 296.989 47.3271C298.506 48.4862 300.365 49.0654 302.563 49.0654C304.847 49.0654 306.756 48.4601 308.29 47.25C309.824 46.0228 310.983 44.3611 311.768 42.2646C312.569 40.1681 312.97 37.8066 312.97 35.1816C312.97 32.5909 312.577 30.2645 311.793 28.2021C311.026 26.1397 309.867 24.5115 308.316 23.3184C306.782 22.1252 304.864 21.5284 302.563 21.5283ZM243.946 21.3496C241.799 21.3497 239.923 21.8778 238.321 22.9346C236.736 23.9743 235.509 25.338 234.64 27.0254C233.892 28.4906 233.473 30.0677 233.381 31.7559H253.79C253.79 29.7445 253.382 27.9632 252.563 26.4121C251.745 24.8439 250.594 23.6085 249.111 22.7051C247.645 21.8017 245.924 21.3496 243.946 21.3496ZM343.696 21.3496C341.549 21.3497 339.673 21.8778 338.071 22.9346C336.486 23.9743 335.259 25.338 334.39 27.0254C333.642 28.4906 333.223 30.0677 333.131 31.7559H353.54C353.54 29.7445 353.132 27.9632 352.313 26.4121C351.495 24.8439 350.344 23.6085 348.861 22.7051C347.395 21.8017 345.674 21.3496 343.696 21.3496ZM434.938 21.3496C432.791 21.3497 430.916 21.8778 429.313 22.9346C427.728 23.9743 426.501 25.338 425.632 27.0254C424.884 28.4906 424.465 30.0677 424.373 31.7559H444.782C444.782 29.7445 444.374 27.9632 443.556 26.4121C442.737 24.8439 441.586 23.6085 440.104 22.7051C438.638 21.8017 436.916 21.3496 434.938 21.3496ZM580.118 21.3496C577.971 21.3497 576.095 21.8778 574.493 22.9346C572.908 23.9743 571.681 25.338 570.812 27.0254C570.064 28.4906 569.645 30.0677 569.553 31.7559H589.962C589.962 29.7445 589.553 27.9632 588.735 26.4121C587.917 24.8439 586.766 23.6085 585.283 22.7051C583.817 21.8017 582.095 21.3496 580.118 21.3496ZM47.3359 0.358398C48.6654 0.358398 49.7989 0.809655 50.7363 1.71289C51.6908 2.59919 52.1679 3.67332 52.168 4.93457C52.168 6.17889 51.6909 7.25284 50.7363 8.15625C49.7988 9.04261 48.6655 9.48633 47.3359 9.48633C46.0064 9.48633 44.8647 9.04255 43.9102 8.15625C42.9727 7.25284 42.5039 6.17889 42.5039 4.93457C42.504 3.67332 42.9727 2.59919 43.9102 1.71289C44.8646 0.809712 46.0066 0.358398 47.3359 0.358398Z" fill="white"/>
</svg>
